<svg width="345" height="89" viewBox="0 0 345 89" fill="none" xmlns="http://www.w3.org/2000/svg">
<mask id="path-1-outside-1_43_2" maskUnits="userSpaceOnUse" x="0" y="0" width="345" height="89" fill="black">
<rect fill="white" width="345" height="89"/>
<path d="M1 73V70.8L6.1 69.7C8.43333 69.1667 9.9 68.5667 10.5 67.9C11.1667 67.2333 11.5 65.8667 11.5 63.8V14.9C11.5 12.7667 11.1667 11.3667 10.5 10.7C9.9 10.0333 8.43333 9.46666 6.1 9L1 7.9V5.7H38C42.6 5.7 46.6 6.36666 50 7.69999C53.4 8.96666 56.0333 10.7667 57.9 13.1C59.8333 15.4333 60.8 18.1667 60.8 21.3C60.8 25.5 59.3667 28.7333 56.5 31C53.7 33.2667 49.9667 34.7333 45.3 35.4V35.6C48.5667 35.8 51.6667 36.6 54.6 38C57.5333 39.4 59.9 41.3667 61.7 43.9C63.5667 46.3667 64.5 49.3 64.5 52.7C64.5 57.7 63.2 61.7 60.6 64.7C58 67.6333 54.5333 69.7667 50.2 71.1C45.9333 72.3667 41.2 73 36 73H1ZM31.4 69.7H34.1C37.1 69.7 39.6667 69 41.8 67.6C43.9333 66.1333 45.5667 64.1333 46.7 61.6C47.9 59 48.5 56.0333 48.5 52.7C48.5 49.5 48 46.8 47 44.6C46 42.3333 44.4 40.6333 42.2 39.5C40.0667 38.3 37.2333 37.7 33.7 37.7H25.5V64.2C25.5 66.4 25.9 67.8667 26.7 68.6C27.5667 69.3333 29.1333 69.7 31.4 69.7ZM25.5 34.4H34.4C37.9333 34.4 40.6667 33.1 42.6 30.5C44.6 27.9 45.6 24.8667 45.6 21.4C45.6 17.6667 44.4 14.6667 42 12.4C39.6667 10.1333 36.4 9 32.2 9H25.5V34.4ZM94.4844 73.8C90.0177 73.8 86.0844 72.8 82.6844 70.8C79.2844 68.8 76.651 66.1 74.7844 62.7C72.9177 59.3 71.9844 55.4667 71.9844 51.2C71.9844 46.6 72.9177 42.5667 74.7844 39.1C76.651 35.5667 79.2844 32.8333 82.6844 30.9C86.0844 28.9 90.0177 27.9 94.4844 27.9C99.0177 27.9 102.984 28.9 106.384 30.9C109.784 32.8333 112.418 35.5 114.284 38.9C116.151 42.3 117.084 46.1333 117.084 50.4C117.084 54.9333 116.151 58.9667 114.284 62.5C112.418 66.0333 109.784 68.8 106.384 70.8C102.984 72.8 99.0177 73.8 94.4844 73.8ZM94.5844 70.6C97.7844 70.6 100.184 69.0667 101.784 66C103.451 62.8667 104.284 58.0333 104.284 51.5C104.284 44.7667 103.451 39.7 101.784 36.3C100.184 32.8333 97.7177 31.1 94.3844 31.1C91.251 31.1 88.851 32.6333 87.1844 35.7C85.5844 38.7667 84.7844 43.5667 84.7844 50.1C84.7844 56.8333 85.5844 61.9333 87.1844 65.4C88.851 68.8667 91.3177 70.6 94.5844 70.6ZM145.559 73.8C141.092 73.8 137.159 72.8 133.759 70.8C130.359 68.8 127.725 66.1 125.859 62.7C123.992 59.3 123.059 55.4667 123.059 51.2C123.059 46.6 123.992 42.5667 125.859 39.1C127.725 35.5667 130.359 32.8333 133.759 30.9C137.159 28.9 141.092 27.9 145.559 27.9C150.092 27.9 154.059 28.9 157.459 30.9C160.859 32.8333 163.492 35.5 165.359 38.9C167.225 42.3 168.159 46.1333 168.159 50.4C168.159 54.9333 167.225 58.9667 165.359 62.5C163.492 66.0333 160.859 68.8 157.459 70.8C154.059 72.8 150.092 73.8 145.559 73.8ZM145.659 70.6C148.859 70.6 151.259 69.0667 152.859 66C154.525 62.8667 155.359 58.0333 155.359 51.5C155.359 44.7667 154.525 39.7 152.859 36.3C151.259 32.8333 148.792 31.1 145.459 31.1C142.325 31.1 139.925 32.6333 138.259 35.7C136.659 38.7667 135.859 43.5667 135.859 50.1C135.859 56.8333 136.659 61.9333 138.259 65.4C139.925 68.8667 142.392 70.6 145.659 70.6ZM171.703 73V71.3L174.903 70.1C175.836 69.7667 176.503 69.2667 176.903 68.6C177.37 67.8667 177.603 67.0333 177.603 66.1V12.2C177.603 10.8 177.37 9.86666 176.903 9.4C176.436 8.93333 175.77 8.6 174.903 8.4L171.703 7.6V5.79999C175.503 5.26666 178.736 4.76666 181.403 4.3C184.07 3.83333 186.836 3.06667 189.703 2L190.703 2.8C190.236 3.53333 189.87 4.66666 189.603 6.2C189.403 7.73333 189.303 9.4 189.303 11.2V66.8C189.303 67.7333 189.603 68.4667 190.203 69C190.87 69.5333 191.47 69.9 192.003 70.1L195.203 71.3V73H171.703ZM199.903 73V71.3L202.003 70.8C203.136 70.4667 203.936 69.9667 204.403 69.3C204.87 68.5667 204.703 67.6 203.903 66.4L193.003 50L202.103 43.1L218.503 67.3C219.103 68.1667 219.736 68.9 220.403 69.5C221.136 70.0333 222.17 70.4667 223.503 70.8L225.603 71.3V73H199.903ZM188.403 58.4L189.003 52.7L208.403 34.1C209.003 33.5 209.203 32.9333 209.003 32.4C208.87 31.8667 208.37 31.5333 207.503 31.4L202.903 30.5V28.8H223.203V30.5L218.203 31.6C217.336 31.8667 216.703 32.1333 216.303 32.4C215.903 32.6 215.436 32.9333 214.903 33.4L188.403 58.4ZM229.613 73V71.3L232.813 70.1C234.613 69.3667 235.513 68.0333 235.513 66.1V37.5C235.513 36.1 235.28 35.1667 234.813 34.7C234.347 34.2333 233.68 33.9 232.813 33.7L229.613 32.9V31.1C233.413 30.5667 236.647 30.0667 239.313 29.6C241.98 29.1333 244.747 28.3667 247.613 27.3L248.613 28.1C248.147 28.8333 247.78 29.9667 247.513 31.5C247.313 33.0333 247.213 34.7 247.213 36.5V66.8C247.213 67.7333 247.513 68.4667 248.113 69C248.78 69.5333 249.38 69.9 249.913 70.1L253.113 71.3V73H229.613ZM241.213 18.5C239.147 18.5 237.38 17.8 235.913 16.4C234.513 14.9333 233.813 13.1667 233.813 11.1C233.813 9.03333 234.513 7.3 235.913 5.9C237.38 4.43333 239.147 3.7 241.213 3.7C243.28 3.7 245.013 4.43333 246.413 5.9C247.88 7.3 248.613 9.03333 248.613 11.1C248.613 13.1667 247.88 14.9333 246.413 16.4C245.013 17.8 243.28 18.5 241.213 18.5ZM307.641 70.5C308.507 71.8333 309.841 73.1667 311.641 74.5C313.441 75.9 315.541 77.2 317.941 78.4C320.341 79.6 322.907 80.6333 325.641 81.5C328.374 82.4333 331.174 83.1667 334.041 83.7C336.974 84.2333 339.774 84.5 342.441 84.5L343.141 86.5C340.674 86.9667 338.141 87.3333 335.541 87.6C333.007 87.8667 330.207 88 327.141 88C322.074 88 317.241 87.4667 312.641 86.4C308.107 85.4 303.807 83.8 299.741 81.6C295.741 79.4 292.007 76.5667 288.541 73.1L307.641 70.5ZM294.341 74.1C289.141 74.1 284.374 73.2333 280.041 71.5C275.707 69.7 271.941 67.2667 268.741 64.2C265.541 61.0667 263.041 57.4333 261.241 53.3C259.507 49.1667 258.641 44.7667 258.641 40.1C258.641 35.0333 259.507 30.3667 261.241 26.1C263.041 21.7667 265.541 18 268.741 14.8C271.941 11.6 275.707 9.13333 280.041 7.4C284.374 5.6 289.141 4.7 294.341 4.7C299.541 4.7 304.341 5.6 308.741 7.4C313.141 9.13333 316.941 11.5667 320.141 14.7C323.341 17.8333 325.807 21.4667 327.541 25.6C329.341 29.6667 330.241 34.0667 330.241 38.8C330.241 43.8667 329.341 48.5333 327.541 52.8C325.807 57.0667 323.341 60.8 320.141 64C316.941 67.2 313.141 69.7 308.741 71.5C304.341 73.2333 299.541 74.1 294.341 74.1ZM294.341 70.6C298.541 70.6 302.174 69.3 305.241 66.7C308.307 64.1 310.674 60.4333 312.341 55.7C314.074 50.9 314.941 45.3 314.941 38.9C314.941 32.8333 314.074 27.5 312.341 22.9C310.674 18.3 308.307 14.7 305.241 12.1C302.174 9.5 298.541 8.2 294.341 8.2C290.274 8.2 286.707 9.5 283.641 12.1C280.574 14.7 278.174 18.4 276.441 23.2C274.774 27.9333 273.941 33.5667 273.941 40.1C273.941 44.5667 274.407 48.6667 275.341 52.4C276.341 56.1333 277.741 59.3667 279.541 62.1C281.341 64.8333 283.474 66.9333 285.941 68.4C288.474 69.8667 291.274 70.6 294.341 70.6Z"/>
</mask>
<path d="M1 73V70.8L6.1 69.7C8.43333 69.1667 9.9 68.5667 10.5 67.9C11.1667 67.2333 11.5 65.8667 11.5 63.8V14.9C11.5 12.7667 11.1667 11.3667 10.5 10.7C9.9 10.0333 8.43333 9.46666 6.1 9L1 7.9V5.7H38C42.6 5.7 46.6 6.36666 50 7.69999C53.4 8.96666 56.0333 10.7667 57.9 13.1C59.8333 15.4333 60.8 18.1667 60.8 21.3C60.8 25.5 59.3667 28.7333 56.5 31C53.7 33.2667 49.9667 34.7333 45.3 35.4V35.6C48.5667 35.8 51.6667 36.6 54.6 38C57.5333 39.4 59.9 41.3667 61.7 43.9C63.5667 46.3667 64.5 49.3 64.5 52.7C64.5 57.7 63.2 61.7 60.6 64.7C58 67.6333 54.5333 69.7667 50.2 71.1C45.9333 72.3667 41.2 73 36 73H1ZM31.4 69.7H34.1C37.1 69.7 39.6667 69 41.8 67.6C43.9333 66.1333 45.5667 64.1333 46.7 61.6C47.9 59 48.5 56.0333 48.5 52.7C48.5 49.5 48 46.8 47 44.6C46 42.3333 44.4 40.6333 42.2 39.5C40.0667 38.3 37.2333 37.7 33.7 37.7H25.5V64.2C25.5 66.4 25.9 67.8667 26.7 68.6C27.5667 69.3333 29.1333 69.7 31.4 69.7ZM25.5 34.4H34.4C37.9333 34.4 40.6667 33.1 42.6 30.5C44.6 27.9 45.6 24.8667 45.6 21.4C45.6 17.6667 44.4 14.6667 42 12.4C39.6667 10.1333 36.4 9 32.2 9H25.5V34.4ZM94.4844 73.8C90.0177 73.8 86.0844 72.8 82.6844 70.8C79.2844 68.8 76.651 66.1 74.7844 62.7C72.9177 59.3 71.9844 55.4667 71.9844 51.2C71.9844 46.6 72.9177 42.5667 74.7844 39.1C76.651 35.5667 79.2844 32.8333 82.6844 30.9C86.0844 28.9 90.0177 27.9 94.4844 27.9C99.0177 27.9 102.984 28.9 106.384 30.9C109.784 32.8333 112.418 35.5 114.284 38.9C116.151 42.3 117.084 46.1333 117.084 50.4C117.084 54.9333 116.151 58.9667 114.284 62.5C112.418 66.0333 109.784 68.8 106.384 70.8C102.984 72.8 99.0177 73.8 94.4844 73.8ZM94.5844 70.6C97.7844 70.6 100.184 69.0667 101.784 66C103.451 62.8667 104.284 58.0333 104.284 51.5C104.284 44.7667 103.451 39.7 101.784 36.3C100.184 32.8333 97.7177 31.1 94.3844 31.1C91.251 31.1 88.851 32.6333 87.1844 35.7C85.5844 38.7667 84.7844 43.5667 84.7844 50.1C84.7844 56.8333 85.5844 61.9333 87.1844 65.4C88.851 68.8667 91.3177 70.6 94.5844 70.6ZM145.559 73.8C141.092 73.8 137.159 72.8 133.759 70.8C130.359 68.8 127.725 66.1 125.859 62.7C123.992 59.3 123.059 55.4667 123.059 51.2C123.059 46.6 123.992 42.5667 125.859 39.1C127.725 35.5667 130.359 32.8333 133.759 30.9C137.159 28.9 141.092 27.9 145.559 27.9C150.092 27.9 154.059 28.9 157.459 30.9C160.859 32.8333 163.492 35.5 165.359 38.9C167.225 42.3 168.159 46.1333 168.159 50.4C168.159 54.9333 167.225 58.9667 165.359 62.5C163.492 66.0333 160.859 68.8 157.459 70.8C154.059 72.8 150.092 73.8 145.559 73.8ZM145.659 70.6C148.859 70.6 151.259 69.0667 152.859 66C154.525 62.8667 155.359 58.0333 155.359 51.5C155.359 44.7667 154.525 39.7 152.859 36.3C151.259 32.8333 148.792 31.1 145.459 31.1C142.325 31.1 139.925 32.6333 138.259 35.7C136.659 38.7667 135.859 43.5667 135.859 50.1C135.859 56.8333 136.659 61.9333 138.259 65.4C139.925 68.8667 142.392 70.6 145.659 70.6ZM171.703 73V71.3L174.903 70.1C175.836 69.7667 176.503 69.2667 176.903 68.6C177.37 67.8667 177.603 67.0333 177.603 66.1V12.2C177.603 10.8 177.37 9.86666 176.903 9.4C176.436 8.93333 175.77 8.6 174.903 8.4L171.703 7.6V5.79999C175.503 5.26666 178.736 4.76666 181.403 4.3C184.07 3.83333 186.836 3.06667 189.703 2L190.703 2.8C190.236 3.53333 189.87 4.66666 189.603 6.2C189.403 7.73333 189.303 9.4 189.303 11.2V66.8C189.303 67.7333 189.603 68.4667 190.203 69C190.87 69.5333 191.47 69.9 192.003 70.1L195.203 71.3V73H171.703ZM199.903 73V71.3L202.003 70.8C203.136 70.4667 203.936 69.9667 204.403 69.3C204.87 68.5667 204.703 67.6 203.903 66.4L193.003 50L202.103 43.1L218.503 67.3C219.103 68.1667 219.736 68.9 220.403 69.5C221.136 70.0333 222.17 70.4667 223.503 70.8L225.603 71.3V73H199.903ZM188.403 58.4L189.003 52.7L208.403 34.1C209.003 33.5 209.203 32.9333 209.003 32.4C208.87 31.8667 208.37 31.5333 207.503 31.4L202.903 30.5V28.8H223.203V30.5L218.203 31.6C217.336 31.8667 216.703 32.1333 216.303 32.4C215.903 32.6 215.436 32.9333 214.903 33.4L188.403 58.4ZM229.613 73V71.3L232.813 70.1C234.613 69.3667 235.513 68.0333 235.513 66.1V37.5C235.513 36.1 235.28 35.1667 234.813 34.7C234.347 34.2333 233.68 33.9 232.813 33.7L229.613 32.9V31.1C233.413 30.5667 236.647 30.0667 239.313 29.6C241.98 29.1333 244.747 28.3667 247.613 27.3L248.613 28.1C248.147 28.8333 247.78 29.9667 247.513 31.5C247.313 33.0333 247.213 34.7 247.213 36.5V66.8C247.213 67.7333 247.513 68.4667 248.113 69C248.78 69.5333 249.38 69.9 249.913 70.1L253.113 71.3V73H229.613ZM241.213 18.5C239.147 18.5 237.38 17.8 235.913 16.4C234.513 14.9333 233.813 13.1667 233.813 11.1C233.813 9.03333 234.513 7.3 235.913 5.9C237.38 4.43333 239.147 3.7 241.213 3.7C243.28 3.7 245.013 4.43333 246.413 5.9C247.88 7.3 248.613 9.03333 248.613 11.1C248.613 13.1667 247.88 14.9333 246.413 16.4C245.013 17.8 243.28 18.5 241.213 18.5ZM307.641 70.5C308.507 71.8333 309.841 73.1667 311.641 74.5C313.441 75.9 315.541 77.2 317.941 78.4C320.341 79.6 322.907 80.6333 325.641 81.5C328.374 82.4333 331.174 83.1667 334.041 83.7C336.974 84.2333 339.774 84.5 342.441 84.5L343.141 86.5C340.674 86.9667 338.141 87.3333 335.541 87.6C333.007 87.8667 330.207 88 327.141 88C322.074 88 317.241 87.4667 312.641 86.4C308.107 85.4 303.807 83.8 299.741 81.6C295.741 79.4 292.007 76.5667 288.541 73.1L307.641 70.5ZM294.341 74.1C289.141 74.1 284.374 73.2333 280.041 71.5C275.707 69.7 271.941 67.2667 268.741 64.2C265.541 61.0667 263.041 57.4333 261.241 53.3C259.507 49.1667 258.641 44.7667 258.641 40.1C258.641 35.0333 259.507 30.3667 261.241 26.1C263.041 21.7667 265.541 18 268.741 14.8C271.941 11.6 275.707 9.13333 280.041 7.4C284.374 5.6 289.141 4.7 294.341 4.7C299.541 4.7 304.341 5.6 308.741 7.4C313.141 9.13333 316.941 11.5667 320.141 14.7C323.341 17.8333 325.807 21.4667 327.541 25.6C329.341 29.6667 330.241 34.0667 330.241 38.8C330.241 43.8667 329.341 48.5333 327.541 52.8C325.807 57.0667 323.341 60.8 320.141 64C316.941 67.2 313.141 69.7 308.741 71.5C304.341 73.2333 299.541 74.1 294.341 74.1ZM294.341 70.6C298.541 70.6 302.174 69.3 305.241 66.7C308.307 64.1 310.674 60.4333 312.341 55.7C314.074 50.9 314.941 45.3 314.941 38.9C314.941 32.8333 314.074 27.5 312.341 22.9C310.674 18.3 308.307 14.7 305.241 12.1C302.174 9.5 298.541 8.2 294.341 8.2C290.274 8.2 286.707 9.5 283.641 12.1C280.574 14.7 278.174 18.4 276.441 23.2C274.774 27.9333 273.941 33.5667 273.941 40.1C273.941 44.5667 274.407 48.6667 275.341 52.4C276.341 56.1333 277.741 59.3667 279.541 62.1C281.341 64.8333 283.474 66.9333 285.941 68.4C288.474 69.8667 291.274 70.6 294.341 70.6Z" fill="black"/>
<path d="M1 73H1.19209e-07V74H1V73ZM1 70.8L0.789162 69.8225L1.19209e-07 69.9927V70.8H1ZM6.1 69.7L6.31085 70.6776L6.32282 70.6749L6.1 69.7ZM10.5 67.9L9.79289 67.1929L9.7743 67.2115L9.75671 67.231L10.5 67.9ZM10.5 10.7L9.75671 11.369L9.7743 11.3885L9.79289 11.4071L10.5 10.7ZM6.1 9L5.88916 9.97752L5.89651 9.9791L5.90388 9.98058L6.1 9ZM1 7.9H1.19209e-07V8.70731L0.789163 8.87752L1 7.9ZM1 5.7V4.7H1.19209e-07V5.7H1ZM50 7.69999L49.6349 8.63097L49.6429 8.63409L49.6509 8.63708L50 7.69999ZM57.9 13.1L57.1191 13.7247L57.1245 13.7314L57.13 13.738L57.9 13.1ZM56.5 31L55.8797 30.2155L55.8708 30.2228L56.5 31ZM45.3 35.4L45.1586 34.41L44.3 34.5327V35.4H45.3ZM45.3 35.6H44.3V36.5406L45.2389 36.5981L45.3 35.6ZM54.6 38L55.0307 37.0975L55.0307 37.0975L54.6 38ZM61.7 43.9L60.8848 44.4792L60.8935 44.4915L60.9026 44.5034L61.7 43.9ZM60.6 64.7L61.3484 65.3633L61.3557 65.3549L60.6 64.7ZM50.2 71.1L50.4846 72.0587L50.4941 72.0558L50.2 71.1ZM41.8 67.6L42.3487 68.436L42.3577 68.4301L42.3665 68.424L41.8 67.6ZM46.7 61.6L45.792 61.1809L45.7872 61.1916L46.7 61.6ZM47 44.6L46.085 45.0037L46.0896 45.0138L47 44.6ZM42.2 39.5L41.7097 40.3716L41.7257 40.3806L41.742 40.389L42.2 39.5ZM25.5 37.7V36.7H24.5V37.7H25.5ZM26.7 68.6L26.0243 69.3372L26.0389 69.3506L26.0541 69.3634L26.7 68.6ZM25.5 34.4H24.5V35.4H25.5V34.4ZM42.6 30.5L41.8074 29.8903L41.8024 29.8968L41.7975 29.9033L42.6 30.5ZM42 12.4L41.3031 13.1173L41.3134 13.127L42 12.4ZM25.5 9V8H24.5V9H25.5ZM2 73V70.8H1.19209e-07V73H2ZM1.21084 71.7775L6.31084 70.6775L5.88916 68.7225L0.789162 69.8225L1.21084 71.7775ZM6.32282 70.6749C7.51874 70.4015 8.52626 70.1038 9.32863 69.7755C10.1101 69.4558 10.7927 69.0696 11.2433 68.569L9.75671 67.231C9.60726 67.3971 9.25655 67.6442 8.57137 67.9245C7.90708 68.1962 7.01459 68.4652 5.87718 68.7251L6.32282 70.6749ZM11.2071 68.6071C11.7187 68.0955 12.0313 67.3917 12.2215 66.612C12.4137 65.8241 12.5 64.8796 12.5 63.8H10.5C10.5 64.7871 10.4197 65.5592 10.2785 66.138C10.1353 66.725 9.94796 67.0378 9.79289 67.1929L11.2071 68.6071ZM12.5 63.8V14.9H10.5V63.8H12.5ZM12.5 14.9C12.5 13.7889 12.4139 12.8212 12.2228 12.0184C12.0341 11.226 11.723 10.5088 11.2071 9.99289L9.79289 11.4071C9.94369 11.5579 10.1325 11.874 10.2772 12.4816C10.4194 13.0788 10.5 13.8777 10.5 14.9H12.5ZM11.2433 10.031C10.7865 9.52349 10.0955 9.14553 9.3104 8.8422C8.50412 8.53068 7.49345 8.25888 6.29612 8.01941L5.90388 9.98058C7.03988 10.2078 7.92922 10.4526 8.5896 10.7078C9.27118 10.9711 9.6135 11.2098 9.75671 11.369L11.2433 10.031ZM6.31084 8.02247L1.21084 6.92248L0.789163 8.87752L5.88916 9.97752L6.31084 8.02247ZM2 7.9V5.7H1.19209e-07V7.9H2ZM1 6.7H38V4.7H1V6.7ZM38 6.7C42.5062 6.7 46.3771 7.35339 49.6349 8.63097L50.3651 6.76902C46.8229 5.37994 42.6938 4.7 38 4.7V6.7ZM49.6509 8.63708C52.9177 9.85413 55.3875 11.5601 57.1191 13.7247L58.6809 12.4753C56.6792 9.97322 53.8823 8.0792 50.3491 6.76291L49.6509 8.63708ZM57.13 13.738C58.9093 15.8854 59.8 18.391 59.8 21.3H61.8C61.8 17.9423 60.7574 14.9812 58.67 12.462L57.13 13.738ZM59.8 21.3C59.8 25.2457 58.4689 28.1684 55.8798 30.2156L57.1202 31.7844C60.2645 29.2983 61.8 25.7543 61.8 21.3H59.8ZM55.8708 30.2228C53.2482 32.3458 49.7003 33.7612 45.1586 34.41L45.4414 36.3899C50.2331 35.7054 54.1518 34.1875 57.1292 31.7772L55.8708 30.2228ZM44.3 35.4V35.6H46.3V35.4H44.3ZM45.2389 36.5981C48.3783 36.7903 51.3527 37.5582 54.1693 38.9025L55.0307 37.0975C51.9807 35.6418 48.7551 34.8097 45.3611 34.6019L45.2389 36.5981ZM54.1693 38.9025C56.9564 40.2327 59.188 42.091 60.8848 44.4792L62.5152 43.3208C60.612 40.6423 58.1103 38.5673 55.0307 37.0975L54.1693 38.9025ZM60.9026 44.5034C62.6247 46.779 63.5 49.495 63.5 52.7H65.5C65.5 49.105 64.5087 45.9543 62.4974 43.2966L60.9026 44.5034ZM63.5 52.7C63.5 57.5238 62.2491 61.2703 59.8443 64.0451L61.3557 65.3549C64.1509 62.1297 65.5 57.8762 65.5 52.7H63.5ZM59.8517 64.0367C57.3914 66.8124 54.0918 68.8563 49.9059 70.1442L50.4941 72.0558C54.9749 70.6771 58.6086 68.4543 61.3484 65.3633L59.8517 64.0367ZM49.9154 70.1414C45.7551 71.3764 41.1194 72 36 72V74C41.2806 74 46.1116 73.3569 50.4846 72.0586L49.9154 70.1414ZM36 72H1V74H36V72ZM31.4 70.7H34.1V68.7H31.4V70.7ZM34.1 70.7C37.26 70.7 40.0254 69.9607 42.3487 68.436L41.2513 66.764C39.3079 68.0393 36.94 68.7 34.1 68.7V70.7ZM42.3665 68.424C44.6622 66.8457 46.4101 64.6969 47.6128 62.0084L45.7872 61.1916C44.7233 63.5698 43.2044 65.4209 41.2335 66.776L42.3665 68.424ZM47.608 62.0191C48.8778 59.2678 49.5 56.1544 49.5 52.7H47.5C47.5 55.9122 46.9222 58.7322 45.792 61.1809L47.608 62.0191ZM49.5 52.7C49.5 49.4013 48.9853 46.551 47.9104 44.1862L46.0896 45.0138C47.0147 47.049 47.5 49.5987 47.5 52.7H49.5ZM47.9149 44.1964C46.8227 41.7207 45.0615 39.8492 42.658 38.611L41.742 40.389C43.7385 41.4174 45.1773 42.946 46.0851 45.0036L47.9149 44.1964ZM42.6903 38.6284C40.3554 37.315 37.3337 36.7 33.7 36.7V38.7C37.133 38.7 39.778 39.285 41.7097 40.3716L42.6903 38.6284ZM33.7 36.7H25.5V38.7H33.7V36.7ZM24.5 37.7V64.2H26.5V37.7H24.5ZM24.5 64.2C24.5 66.429 24.8859 68.2936 26.0243 69.3372L27.3757 67.8628C26.9141 67.4397 26.5 66.371 26.5 64.2H24.5ZM26.0541 69.3634C27.2106 70.342 29.097 70.7 31.4 70.7V68.7C29.1697 68.7 27.9227 68.3246 27.3459 67.8366L26.0541 69.3634ZM25.5 35.4H34.4V33.4H25.5V35.4ZM34.4 35.4C38.2164 35.4 41.2615 33.9759 43.4025 31.0967L41.7975 29.9033C40.0718 32.2241 37.6503 33.4 34.4 33.4V35.4ZM43.3926 31.1097C45.5351 28.3246 46.6 25.0738 46.6 21.4H44.6C44.6 24.6595 43.665 27.4754 41.8074 29.8903L43.3926 31.1097ZM46.6 21.4C46.6 17.4312 45.3137 14.1541 42.6866 11.673L41.3134 13.127C43.4863 15.1792 44.6 17.9022 44.6 21.4H46.6ZM42.6968 11.6827C40.1271 9.18641 36.5814 8 32.2 8V10C36.2186 10 39.2063 11.0803 41.3032 13.1173L42.6968 11.6827ZM32.2 8H25.5V10H32.2V8ZM24.5 9V34.4H26.5V9H24.5ZM82.6844 70.8L82.1774 71.6619L82.1774 71.6619L82.6844 70.8ZM74.7844 62.7L75.661 62.2187L75.661 62.2187L74.7844 62.7ZM74.7844 39.1L75.6649 39.5741L75.6686 39.5671L74.7844 39.1ZM82.6844 30.9L83.1787 31.7693L83.1851 31.7657L83.1914 31.7619L82.6844 30.9ZM106.384 30.9L105.877 31.7619L105.884 31.7657L105.89 31.7693L106.384 30.9ZM106.384 70.8L105.877 69.9381L105.877 69.9381L106.384 70.8ZM101.784 66L100.901 65.5304L100.898 65.5374L101.784 66ZM101.784 36.3L100.876 36.7191L100.881 36.7297L100.886 36.7402L101.784 36.3ZM87.1844 35.7L86.3058 35.2225L86.3017 35.2299L86.2978 35.2374L87.1844 35.7ZM87.1844 65.4L86.2764 65.8191L86.2797 65.8262L86.2831 65.8333L87.1844 65.4ZM94.4844 72.8C90.1719 72.8 86.4182 71.8362 83.1914 69.9381L82.1774 71.6619C85.7505 73.7638 89.8635 74.8 94.4844 74.8V72.8ZM83.1914 69.9381C79.9438 68.0277 77.4394 65.4581 75.661 62.2187L73.9078 63.1813C75.8627 66.7419 78.6249 69.5723 82.1774 71.6619L83.1914 69.9381ZM75.661 62.2187C73.8832 58.9806 72.9844 55.3156 72.9844 51.2H70.9844C70.9844 55.6177 71.9523 59.6194 73.9078 63.1813L75.661 62.2187ZM72.9844 51.2C72.9844 46.7375 73.8889 42.8723 75.6648 39.5741L73.9039 38.6259C71.9465 42.261 70.9844 46.4625 70.9844 51.2H72.9844ZM75.6686 39.5671C77.4483 36.1984 79.9481 33.6063 83.1787 31.7693L82.1901 30.0307C78.6207 32.0604 75.8538 34.9349 73.9002 38.6329L75.6686 39.5671ZM83.1914 31.7619C86.4182 29.8638 90.1719 28.9 94.4844 28.9V26.9C89.8635 26.9 85.7505 27.9362 82.1774 30.0381L83.1914 31.7619ZM94.4844 28.9C98.8664 28.9 102.653 29.8651 105.877 31.7619L106.891 30.0381C103.316 27.9349 99.169 26.9 94.4844 26.9V28.9ZM105.89 31.7693C109.131 33.612 111.631 36.1449 113.408 39.3813L115.161 38.4187C113.204 34.8551 110.438 32.0547 106.879 30.0307L105.89 31.7693ZM113.408 39.3813C115.186 42.6194 116.084 46.2844 116.084 50.4H118.084C118.084 45.9823 117.116 41.9806 115.161 38.4187L113.408 39.3813ZM116.084 50.4C116.084 54.7926 115.181 58.6619 113.4 62.0329L115.169 62.9671C117.121 59.2715 118.084 55.074 118.084 50.4H116.084ZM113.4 62.0329C111.619 65.4044 109.115 68.0334 105.877 69.9381L106.891 71.6619C110.454 69.5666 113.216 66.6622 115.169 62.9671L113.4 62.0329ZM105.877 69.9381C102.653 71.8349 98.8664 72.8 94.4844 72.8V74.8C99.169 74.8 103.316 73.7651 106.891 71.6619L105.877 69.9381ZM94.5844 71.6C96.3509 71.6 97.9427 71.1744 99.3228 70.2927C100.699 69.4137 101.807 68.1177 102.671 66.4626L100.898 65.5374C100.161 66.9489 99.2701 67.953 98.246 68.6073C97.2261 69.2589 96.0179 69.6 94.5844 69.6V71.6ZM102.667 66.4696C104.451 63.1156 105.284 58.081 105.284 51.5H103.284C103.284 57.9857 102.451 62.6178 100.902 65.5304L102.667 66.4696ZM105.284 51.5C105.284 44.7152 104.45 39.4654 102.682 35.8598L100.886 36.7402C102.452 39.9346 103.284 44.8181 103.284 51.5H105.284ZM102.692 35.8809C101.838 34.0295 100.721 32.5735 99.3093 31.5818C97.8899 30.5844 96.2341 30.1 94.3844 30.1V32.1C95.868 32.1 97.1122 32.4823 98.1594 33.2182C99.2149 33.9599 100.131 35.1038 100.876 36.7191L102.692 35.8809ZM94.3844 30.1C92.6467 30.1 91.0727 30.5277 89.696 31.4073C88.3248 32.2834 87.2018 33.5738 86.3058 35.2225L88.063 36.1775C88.8336 34.7595 89.744 33.75 90.7728 33.0927C91.7961 32.4389 92.9887 32.1 94.3844 32.1V30.1ZM86.2978 35.2374C84.5829 38.5244 83.7844 43.5247 83.7844 50.1H85.7844C85.7844 43.6086 86.5859 39.0089 88.071 36.1626L86.2978 35.2374ZM83.7844 50.1C83.7844 56.8839 84.5859 62.1563 86.2764 65.8191L88.0923 64.9809C86.5828 61.7104 85.7844 56.7827 85.7844 50.1H83.7844ZM86.2831 65.8333C87.1705 67.6791 88.3028 69.1297 89.7094 70.1182C91.1254 71.1132 92.7633 71.6 94.5844 71.6V69.6C93.1387 69.6 91.9101 69.2202 90.8593 68.4818C89.7993 67.7369 88.8649 66.5876 88.0856 64.9667L86.2831 65.8333ZM133.759 70.8L133.252 71.6619L133.252 71.6619L133.759 70.8ZM125.859 62.7L126.735 62.2187L126.735 62.2187L125.859 62.7ZM125.859 39.1L126.739 39.5741L126.743 39.5671L125.859 39.1ZM133.759 30.9L134.253 31.7693L134.259 31.7657L134.266 31.7619L133.759 30.9ZM157.459 30.9L156.952 31.7619L156.958 31.7657L156.964 31.7693L157.459 30.9ZM157.459 70.8L156.952 69.9381L156.952 69.9381L157.459 70.8ZM152.859 66L151.976 65.5304L151.972 65.5374L152.859 66ZM152.859 36.3L151.951 36.7191L151.956 36.7297L151.961 36.7402L152.859 36.3ZM138.259 35.7L137.38 35.2225L137.376 35.2299L137.372 35.2374L138.259 35.7ZM138.259 65.4L137.351 65.8191L137.354 65.8262L137.357 65.8333L138.259 65.4ZM145.559 72.8C141.246 72.8 137.492 71.8362 134.266 69.9381L133.252 71.6619C136.825 73.7638 140.938 74.8 145.559 74.8V72.8ZM134.266 69.9381C131.018 68.0277 128.514 65.4581 126.735 62.2187L124.982 63.1813C126.937 66.7419 129.699 69.5723 133.252 71.6619L134.266 69.9381ZM126.735 62.2187C124.957 58.9806 124.059 55.3156 124.059 51.2H122.059C122.059 55.6177 123.026 59.6194 124.982 63.1813L126.735 62.2187ZM124.059 51.2C124.059 46.7375 124.963 42.8723 126.739 39.5741L124.978 38.6259C123.021 42.261 122.059 46.4625 122.059 51.2H124.059ZM126.743 39.5671C128.522 36.1984 131.022 33.6063 134.253 31.7693L133.264 30.0307C129.695 32.0604 126.928 34.9349 124.974 38.6329L126.743 39.5671ZM134.266 31.7619C137.492 29.8638 141.246 28.9 145.559 28.9V26.9C140.938 26.9 136.825 27.9362 133.252 30.0381L134.266 31.7619ZM145.559 28.9C149.941 28.9 153.727 29.8651 156.952 31.7619L157.966 30.0381C154.39 27.9349 150.243 26.9 145.559 26.9V28.9ZM156.964 31.7693C160.205 33.612 162.705 36.1449 164.482 39.3813L166.235 38.4187C164.279 34.8551 161.512 32.0547 157.953 30.0307L156.964 31.7693ZM164.482 39.3813C166.26 42.6194 167.159 46.2844 167.159 50.4H169.159C169.159 45.9823 168.191 41.9806 166.235 38.4187L164.482 39.3813ZM167.159 50.4C167.159 54.7926 166.255 58.6619 164.474 62.0329L166.243 62.9671C168.195 59.2715 169.159 55.074 169.159 50.4H167.159ZM164.474 62.0329C162.693 65.4044 160.189 68.0334 156.952 69.9381L157.966 71.6619C161.528 69.5666 164.291 66.6622 166.243 62.9671L164.474 62.0329ZM156.952 69.9381C153.727 71.8349 149.941 72.8 145.559 72.8V74.8C150.243 74.8 154.39 73.7651 157.966 71.6619L156.952 69.9381ZM145.659 71.6C147.425 71.6 149.017 71.1744 150.397 70.2927C151.773 69.4137 152.882 68.1177 153.745 66.4626L151.972 65.5374C151.236 66.9489 150.344 67.953 149.32 68.6073C148.3 69.2589 147.092 69.6 145.659 69.6V71.6ZM153.741 66.4696C155.526 63.1156 156.359 58.081 156.359 51.5H154.359C154.359 57.9857 153.525 62.6178 151.976 65.5304L153.741 66.4696ZM156.359 51.5C156.359 44.7152 155.524 39.4654 153.757 35.8598L151.961 36.7402C153.527 39.9346 154.359 44.8181 154.359 51.5H156.359ZM153.767 35.8809C152.912 34.0295 151.795 32.5735 150.384 31.5818C148.964 30.5844 147.308 30.1 145.459 30.1V32.1C146.942 32.1 148.186 32.4823 149.234 33.2182C150.289 33.9599 151.205 35.1038 151.951 36.7191L153.767 35.8809ZM145.459 30.1C143.721 30.1 142.147 30.5277 140.77 31.4073C139.399 32.2834 138.276 33.5738 137.38 35.2225L139.137 36.1775C139.908 34.7595 140.818 33.75 141.847 33.0927C142.87 32.4389 144.063 32.1 145.459 32.1V30.1ZM137.372 35.2374C135.657 38.5244 134.859 43.5247 134.859 50.1H136.859C136.859 43.6086 137.66 39.0089 139.145 36.1626L137.372 35.2374ZM134.859 50.1C134.859 56.8839 135.66 62.1563 137.351 65.8191L139.167 64.9809C137.657 61.7104 136.859 56.7827 136.859 50.1H134.859ZM137.357 65.8333C138.245 67.6791 139.377 69.1297 140.784 70.1182C142.2 71.1132 143.838 71.6 145.659 71.6V69.6C144.213 69.6 142.984 69.2202 141.934 68.4818C140.874 67.7369 139.939 66.5876 139.16 64.9667L137.357 65.8333ZM171.703 73H170.703V74H171.703V73ZM171.703 71.3L171.352 70.3637L170.703 70.607V71.3H171.703ZM174.903 70.1L174.567 69.1583L174.559 69.1609L174.552 69.1637L174.903 70.1ZM176.903 68.6L176.059 68.0631L176.052 68.0742L176.046 68.0855L176.903 68.6ZM176.903 9.4L177.61 8.69289L177.61 8.69289L176.903 9.4ZM174.903 8.4L174.661 9.37014L174.669 9.37234L174.678 9.37439L174.903 8.4ZM171.703 7.6H170.703V8.38077L171.461 8.57014L171.703 7.6ZM171.703 5.79999L171.564 4.8097L170.703 4.93054V5.79999H171.703ZM181.403 4.3L181.231 3.31497L181.231 3.31497L181.403 4.3ZM189.703 2L190.328 1.21913L189.885 0.86519L189.354 1.06277L189.703 2ZM190.703 2.8L191.547 3.33687L192.029 2.57975L191.328 2.01913L190.703 2.8ZM189.603 6.2L188.618 6.02865L188.614 6.04959L188.612 6.07066L189.603 6.2ZM190.203 69L189.539 69.7474L189.558 69.7647L189.578 69.7809L190.203 69ZM192.003 70.1L191.652 71.0363L191.652 71.0363L192.003 70.1ZM195.203 71.3H196.203V70.607L195.554 70.3637L195.203 71.3ZM195.203 73V74H196.203V73H195.203ZM199.903 73H198.903V74H199.903V73ZM199.903 71.3L199.672 70.3272L198.903 70.5101V71.3H199.903ZM202.003 70.8L202.235 71.7728L202.26 71.7667L202.285 71.7594L202.003 70.8ZM204.403 69.3L205.222 69.8735L205.235 69.8554L205.247 69.8369L204.403 69.3ZM203.903 66.4L203.07 66.9535L203.071 66.9547L203.903 66.4ZM193.003 50L192.399 49.2032L191.65 49.7709L192.17 50.5535L193.003 50ZM202.103 43.1L202.931 42.539L202.339 41.666L201.499 42.3032L202.103 43.1ZM218.503 67.3L217.675 67.861L217.681 67.8692L218.503 67.3ZM220.403 69.5L219.734 70.2433L219.773 70.2781L219.815 70.3087L220.403 69.5ZM223.503 70.8L223.261 71.7702L223.272 71.7728L223.503 70.8ZM225.603 71.3H226.603V70.5101L225.835 70.3272L225.603 71.3ZM225.603 73V74H226.603V73H225.603ZM188.403 58.4L187.409 58.2953L187.126 60.9795L189.089 59.1274L188.403 58.4ZM189.003 52.7L188.311 51.9782L188.047 52.2314L188.009 52.5953L189.003 52.7ZM208.403 34.1L209.095 34.8218L209.103 34.8145L209.11 34.8071L208.403 34.1ZM209.003 32.4L208.033 32.6425L208.047 32.6978L208.067 32.7511L209.003 32.4ZM207.503 31.4L207.311 32.3814L207.331 32.3853L207.351 32.3884L207.503 31.4ZM202.903 30.5H201.903V31.3233L202.711 31.4814L202.903 30.5ZM202.903 28.8V27.8H201.903V28.8H202.903ZM223.203 28.8H224.203V27.8H223.203V28.8ZM223.203 30.5L223.418 31.4766L224.203 31.3039V30.5H223.203ZM218.203 31.6L217.988 30.6234L217.948 30.6322L217.909 30.6442L218.203 31.6ZM216.303 32.4L216.75 33.2944L216.806 33.2666L216.858 33.232L216.303 32.4ZM214.903 33.4L214.245 32.6474L214.231 32.6598L214.217 32.6726L214.903 33.4ZM172.703 73V71.3H170.703V73H172.703ZM172.054 72.2363L175.254 71.0363L174.552 69.1637L171.352 70.3637L172.054 72.2363ZM175.239 71.0417C176.33 70.6524 177.212 70.0289 177.761 69.1145L176.046 68.0855C175.794 68.5045 175.343 68.8809 174.567 69.1583L175.239 71.0417ZM177.747 69.1369C178.323 68.2312 178.603 67.2089 178.603 66.1H176.603C176.603 66.8578 176.416 67.5022 176.059 68.0631L177.747 69.1369ZM178.603 66.1V12.2H176.603V66.1H178.603ZM178.603 12.2C178.603 11.4517 178.542 10.7804 178.398 10.2075C178.257 9.64055 178.017 9.10009 177.61 8.69289L176.196 10.1071C176.255 10.1666 176.366 10.3261 176.458 10.6925C176.548 11.0529 176.603 11.5483 176.603 12.2H178.603ZM177.61 8.69289C176.972 8.05516 176.116 7.65353 175.128 7.42561L174.678 9.37439C175.424 9.54646 175.9 9.81151 176.196 10.1071L177.61 8.69289ZM175.146 7.42985L171.946 6.62985L171.461 8.57014L174.661 9.37014L175.146 7.42985ZM172.703 7.6V5.79999H170.703V7.6H172.703ZM171.842 6.79029C175.649 6.25598 178.894 5.75425 181.576 5.28503L181.231 3.31497C178.579 3.77908 175.357 4.27735 171.564 4.8097L171.842 6.79029ZM181.576 5.28503C184.309 4.80659 187.135 4.02248 190.052 2.93722L189.354 1.06277C186.538 2.11085 183.83 2.86007 181.231 3.31497L181.576 5.28503ZM189.078 2.78086L190.078 3.58087L191.328 2.01913L190.328 1.21913L189.078 2.78086ZM189.859 2.26312C189.287 3.16344 188.892 4.45177 188.618 6.02865L190.588 6.37134C190.847 4.88155 191.186 3.90322 191.547 3.33687L189.859 2.26312ZM188.612 6.07066C188.405 7.65315 188.303 9.36357 188.303 11.2H190.303C190.303 9.43642 190.401 7.81351 190.595 6.32933L188.612 6.07066ZM188.303 11.2V66.8H190.303V11.2H188.303ZM188.303 66.8C188.303 67.9678 188.69 68.9928 189.539 69.7474L190.867 68.2526C190.516 67.9406 190.303 67.4989 190.303 66.8H188.303ZM189.578 69.7809C190.291 70.3506 190.984 70.7857 191.652 71.0363L192.354 69.1637C191.956 69.0143 191.449 68.716 190.828 68.2191L189.578 69.7809ZM191.652 71.0363L194.852 72.2363L195.554 70.3637L192.354 69.1637L191.652 71.0363ZM194.203 71.3V73H196.203V71.3H194.203ZM195.203 72H171.703V74H195.203V72ZM200.903 73V71.3H198.903V73H200.903ZM200.135 72.2728L202.235 71.7728L201.772 69.8272L199.672 70.3272L200.135 72.2728ZM202.285 71.7594C203.541 71.3901 204.578 70.7936 205.222 69.8735L203.584 68.7265C203.295 69.1397 202.732 69.5433 201.721 69.8406L202.285 71.7594ZM205.247 69.8369C206.045 68.5818 205.597 67.1377 204.735 65.8453L203.071 66.9547C203.809 68.0623 203.694 68.5515 203.559 68.7631L205.247 69.8369ZM204.736 65.8465L193.836 49.4465L192.17 50.5535L203.07 66.9535L204.736 65.8465ZM193.607 50.7968L202.707 43.8968L201.499 42.3032L192.399 49.2032L193.607 50.7968ZM201.275 43.661L217.675 67.861L219.331 66.739L202.931 42.539L201.275 43.661ZM217.681 67.8692C218.318 68.7889 219.001 69.5833 219.734 70.2433L221.072 68.7567C220.472 68.2167 219.889 67.5445 219.325 66.7308L217.681 67.8692ZM219.815 70.3087C220.691 70.9461 221.861 71.4201 223.261 71.7701L223.746 69.8299C222.479 69.5132 221.582 69.1206 220.991 68.6913L219.815 70.3087ZM223.272 71.7728L225.372 72.2728L225.835 70.3272L223.735 69.8272L223.272 71.7728ZM224.603 71.3V73H226.603V71.3H224.603ZM225.603 72H199.903V74H225.603V72ZM189.398 58.5047L189.998 52.8047L188.009 52.5953L187.409 58.2953L189.398 58.5047ZM189.695 53.4218L209.095 34.8218L207.711 33.3782L188.311 51.9782L189.695 53.4218ZM209.11 34.8071C209.833 34.0845 210.34 33.1177 209.939 32.0489L208.067 32.7511C208.079 32.7849 208.087 32.8173 208.06 32.8922C208.026 32.989 207.931 33.1578 207.696 33.3929L209.11 34.8071ZM209.973 32.1575C209.69 31.0262 208.654 30.5653 207.655 30.4116L207.351 32.3884C207.701 32.4423 207.887 32.5245 207.973 32.582C208.037 32.6247 208.032 32.6405 208.033 32.6425L209.973 32.1575ZM207.695 30.4186L203.095 29.5186L202.711 31.4814L207.311 32.3814L207.695 30.4186ZM203.903 30.5V28.8H201.903V30.5H203.903ZM202.903 29.8H223.203V27.8H202.903V29.8ZM222.203 28.8V30.5H224.203V28.8H222.203ZM222.988 29.5234L217.988 30.6234L218.418 32.5766L223.418 31.4766L222.988 29.5234ZM217.909 30.6442C217.016 30.9189 216.271 31.2194 215.748 31.5679L216.858 33.232C217.135 33.0473 217.657 32.8145 218.497 32.5558L217.909 30.6442ZM215.856 31.5056C215.349 31.7591 214.809 32.1532 214.245 32.6474L215.562 34.1526C216.064 33.7134 216.457 33.4409 216.75 33.2944L215.856 31.5056ZM214.217 32.6726L187.717 57.6726L189.089 59.1274L215.589 34.1274L214.217 32.6726ZM229.613 73H228.613V74H229.613V73ZM229.613 71.3L229.262 70.3637L228.613 70.607V71.3H229.613ZM232.813 70.1L233.164 71.0363L233.178 71.0314L233.191 71.0261L232.813 70.1ZM234.813 34.7L234.106 35.4071L234.813 34.7ZM232.813 33.7L232.571 34.6701L232.58 34.6723L232.588 34.6744L232.813 33.7ZM229.613 32.9H228.613V33.6808L229.371 33.8701L229.613 32.9ZM229.613 31.1L229.474 30.1097L228.613 30.2305V31.1H229.613ZM239.313 29.6L239.141 28.615L239.141 28.615L239.313 29.6ZM247.613 27.3L248.238 26.5191L247.796 26.1652L247.265 26.3628L247.613 27.3ZM248.613 28.1L249.457 28.6369L249.939 27.8797L249.238 27.3191L248.613 28.1ZM247.513 31.5L246.528 31.3287L246.524 31.3496L246.522 31.3707L247.513 31.5ZM248.113 69L247.449 69.7474L247.468 69.7647L247.489 69.7809L248.113 69ZM249.913 70.1L249.562 71.0363L249.562 71.0363L249.913 70.1ZM253.113 71.3H254.113V70.607L253.464 70.3637L253.113 71.3ZM253.113 73V74H254.113V73H253.113ZM235.913 16.4L235.19 17.0905L235.206 17.1073L235.223 17.1234L235.913 16.4ZM235.913 5.9L236.62 6.60711L236.62 6.60711L235.913 5.9ZM246.413 5.9L245.69 6.59048L245.706 6.6073L245.723 6.62336L246.413 5.9ZM246.413 16.4L245.706 15.6929L245.706 15.6929L246.413 16.4ZM230.613 73V71.3H228.613V73H230.613ZM229.964 72.2363L233.164 71.0363L232.462 69.1637L229.262 70.3637L229.964 72.2363ZM233.191 71.0261C234.235 70.6004 235.085 69.9719 235.667 69.1095C236.25 68.2466 236.513 67.2252 236.513 66.1H234.513C234.513 66.9082 234.327 67.52 234.009 67.9905C233.692 68.4614 233.191 68.8662 232.436 69.1739L233.191 71.0261ZM236.513 66.1V37.5H234.513V66.1H236.513ZM236.513 37.5C236.513 36.7517 236.452 36.0804 236.308 35.5075C236.167 34.9405 235.928 34.4001 235.52 33.9929L234.106 35.4071C234.166 35.4666 234.277 35.6261 234.368 35.9925C234.458 36.3529 234.513 36.8483 234.513 37.5H236.513ZM235.52 33.9929C234.883 33.3552 234.026 32.9535 233.038 32.7256L232.588 34.6744C233.334 34.8465 233.811 35.1115 234.106 35.4071L235.52 33.9929ZM233.056 32.7299L229.856 31.9299L229.371 33.8701L232.571 34.6701L233.056 32.7299ZM230.613 32.9V31.1H228.613V32.9H230.613ZM229.752 32.0903C233.559 31.556 236.804 31.0543 239.486 30.585L239.141 28.615C236.489 29.0791 233.267 29.5773 229.474 30.1097L229.752 32.0903ZM239.486 30.585C242.22 30.1066 245.045 29.3225 247.962 28.2372L247.265 26.3628C244.448 27.4108 241.74 28.1601 239.141 28.615L239.486 30.585ZM246.989 28.0809L247.989 28.8809L249.238 27.3191L248.238 26.5191L246.989 28.0809ZM247.77 27.5631C247.197 28.4634 246.802 29.7518 246.528 31.3287L248.498 31.6713C248.758 30.1816 249.097 29.2032 249.457 28.6369L247.77 27.5631ZM246.522 31.3707C246.315 32.9532 246.213 34.6636 246.213 36.5H248.213C248.213 34.7364 248.311 33.1135 248.505 31.6293L246.522 31.3707ZM246.213 36.5V66.8H248.213V36.5H246.213ZM246.213 66.8C246.213 67.9678 246.6 68.9928 247.449 69.7474L248.778 68.2526C248.427 67.9406 248.213 67.4989 248.213 66.8H246.213ZM247.489 69.7809C248.201 70.3506 248.894 70.7857 249.562 71.0363L250.264 69.1637C249.866 69.0143 249.359 68.716 248.738 68.2191L247.489 69.7809ZM249.562 71.0363L252.762 72.2363L253.464 70.3637L250.264 69.1637L249.562 71.0363ZM252.113 71.3V73H254.113V71.3H252.113ZM253.113 72H229.613V74H253.113V72ZM241.213 17.5C239.398 17.5 237.88 16.8953 236.604 15.6766L235.223 17.1234C236.879 18.7047 238.895 19.5 241.213 19.5V17.5ZM236.637 15.7095C235.418 14.4328 234.813 12.915 234.813 11.1H232.813C232.813 13.4183 233.609 15.4338 235.19 17.0905L236.637 15.7095ZM234.813 11.1C234.813 9.28559 235.417 7.8106 236.62 6.60711L235.206 5.19289C233.61 6.78939 232.813 8.78107 232.813 11.1H234.813ZM236.62 6.60711C237.9 5.32721 239.413 4.7 241.213 4.7V2.7C238.88 2.7 236.86 3.53946 235.206 5.19289L236.62 6.60711ZM241.213 4.7C243.013 4.7 244.483 5.32575 245.69 6.59048L247.137 5.20952C245.544 3.54091 243.547 2.7 241.213 2.7V4.7ZM245.723 6.62336C246.988 7.83059 247.613 9.30066 247.613 11.1H249.613C249.613 8.766 248.772 6.76941 247.104 5.17664L245.723 6.62336ZM247.613 11.1C247.613 12.9004 246.986 14.413 245.706 15.6929L247.12 17.1071C248.774 15.4537 249.613 13.433 249.613 11.1H247.613ZM245.706 15.6929C244.503 16.8964 243.028 17.5 241.213 17.5V19.5C243.532 19.5 245.524 18.7036 247.12 17.1071L245.706 15.6929ZM307.641 70.5L308.479 69.955L308.134 69.4237L307.506 69.5091L307.641 70.5ZM311.641 74.5L312.255 73.7106L312.245 73.7034L312.236 73.6964L311.641 74.5ZM317.941 78.4L318.388 77.5056L318.388 77.5056L317.941 78.4ZM325.641 81.5L325.964 80.5537L325.953 80.5501L325.943 80.5468L325.641 81.5ZM334.041 83.7L333.858 84.6831L333.862 84.6839L334.041 83.7ZM342.441 84.5L343.384 84.1696L343.15 83.5H342.441V84.5ZM343.141 86.5L343.327 87.4826L344.468 87.2665L344.084 86.1696L343.141 86.5ZM335.541 87.6L335.439 86.6052L335.436 86.6055L335.541 87.6ZM312.641 86.4L312.867 85.4258L312.856 85.4235L312.641 86.4ZM299.741 81.6L299.259 82.4762L299.265 82.4795L299.741 81.6ZM288.541 73.1L288.406 72.1091L286.408 72.3811L287.834 73.8071L288.541 73.1ZM280.041 71.5L279.657 72.4236L279.669 72.4285L280.041 71.5ZM268.741 64.2L268.041 64.9146L268.049 64.922L268.741 64.2ZM261.241 53.3L260.318 53.6868L260.324 53.6993L261.241 53.3ZM261.241 26.1L260.317 25.7164L260.314 25.7236L261.241 26.1ZM268.741 14.8L269.448 15.5071L269.448 15.5071L268.741 14.8ZM280.041 7.4L280.412 8.32856L280.424 8.32349L280.041 7.4ZM308.741 7.4L308.362 8.32562L308.374 8.33041L308.741 7.4ZM320.141 14.7L319.441 15.4145L319.441 15.4145L320.141 14.7ZM327.541 25.6L326.618 25.9867L326.622 25.9958L326.626 26.0047L327.541 25.6ZM327.541 52.8L326.619 52.4113L326.614 52.4236L327.541 52.8ZM320.141 64L320.848 64.7071L320.848 64.7071L320.141 64ZM308.741 71.5L309.107 72.4305L309.119 72.4255L308.741 71.5ZM305.241 66.7L305.887 67.4628L305.887 67.4628L305.241 66.7ZM312.341 55.7L311.4 55.3603L311.397 55.3679L312.341 55.7ZM312.341 22.9L311.4 23.2407L311.405 23.2526L312.341 22.9ZM305.241 12.1L305.887 11.3372L305.887 11.3372L305.241 12.1ZM276.441 23.2L275.5 22.8603L275.497 22.8679L276.441 23.2ZM275.341 52.4L274.37 52.6425L274.373 52.6507L274.375 52.6587L275.341 52.4ZM279.541 62.1L278.705 62.65L278.705 62.65L279.541 62.1ZM285.941 68.4L285.43 69.2596L285.44 69.2654L285.941 68.4ZM306.802 71.045C307.755 72.5101 309.186 73.926 311.045 75.3036L312.236 73.6964C310.496 72.4074 309.26 71.1565 308.479 69.955L306.802 71.045ZM311.027 75.2894C312.887 76.7361 315.045 78.07 317.493 79.2944L318.388 77.5056C316.037 76.33 313.994 75.0639 312.255 73.7106L311.027 75.2894ZM317.493 79.2944C319.943 80.5193 322.559 81.5718 325.338 82.4532L325.943 80.5468C323.256 79.6948 320.738 78.6807 318.388 77.5056L317.493 79.2944ZM325.317 82.4463C328.097 83.3955 330.944 84.141 333.858 84.6831L334.224 82.7169C331.404 82.1923 328.651 81.4712 325.964 80.5537L325.317 82.4463ZM333.862 84.6839C336.847 85.2267 339.707 85.5 342.441 85.5V83.5C339.84 83.5 337.101 83.24 334.22 82.7161L333.862 84.6839ZM341.497 84.8304L342.197 86.8304L344.084 86.1696L343.384 84.1696L341.497 84.8304ZM342.955 85.5174C340.517 85.9786 338.012 86.3413 335.439 86.6052L335.643 88.5948C338.27 88.3253 340.831 87.9547 343.327 87.4826L342.955 85.5174ZM335.436 86.6055C332.944 86.8679 330.179 87 327.141 87V89C330.235 89 333.071 88.8655 335.645 88.5945L335.436 86.6055ZM327.141 87C322.144 87 317.387 86.4741 312.867 85.4258L312.415 87.3742C317.094 88.4592 322.003 89 327.141 89V87ZM312.856 85.4235C308.413 84.4434 304.201 82.876 300.216 80.7205L299.265 82.4795C303.414 84.724 307.801 86.3566 312.425 87.3765L312.856 85.4235ZM300.223 80.7238C296.311 78.5725 292.653 75.7978 289.248 72.3929L287.834 73.8071C291.362 77.3356 295.17 80.2275 299.259 82.4762L300.223 80.7238ZM288.676 74.0909L307.776 71.4909L307.506 69.5091L288.406 72.1091L288.676 74.0909ZM294.341 73.1C289.253 73.1 284.614 72.2525 280.412 70.5715L279.669 72.4285C284.133 74.2142 289.028 75.1 294.341 75.1V73.1ZM280.424 70.5765C276.198 68.8212 272.538 66.4541 269.433 63.478L268.049 64.922C271.343 68.0793 275.216 70.5788 279.657 72.4235L280.424 70.5765ZM269.44 63.4855C266.333 60.4429 263.906 56.9168 262.157 52.9007L260.324 53.6993C262.175 57.9499 264.748 61.6905 268.041 64.9145L269.44 63.4855ZM262.163 52.9133C260.483 48.9074 259.641 44.6394 259.641 40.1H257.641C257.641 44.8939 258.532 49.4259 260.318 53.6867L262.163 52.9133ZM259.641 40.1C259.641 35.1494 260.487 30.6121 262.167 26.4764L260.314 25.7236C258.528 30.1213 257.641 34.9173 257.641 40.1H259.641ZM262.164 26.4836C263.916 22.2667 266.344 18.6111 269.448 15.5071L268.034 14.0929C264.737 17.3889 262.165 21.2666 260.317 25.7164L262.164 26.4836ZM269.448 15.5071C272.549 12.4059 276.2 10.0131 280.412 8.32848L279.669 6.47152C275.214 8.25354 271.332 10.7941 268.034 14.0929L269.448 15.5071ZM280.424 8.32349C284.623 6.5792 289.258 5.7 294.341 5.7V3.7C289.023 3.7 284.124 4.6208 279.657 6.4765L280.424 8.32349ZM294.341 5.7C299.423 5.7 304.093 6.57914 308.362 8.32555L309.119 6.47445C304.588 4.62085 299.658 3.7 294.341 3.7V5.7ZM308.374 8.33041C312.657 10.0175 316.342 12.3798 319.441 15.4145L320.84 13.9855C317.539 10.7535 313.624 8.24912 309.107 6.46959L308.374 8.33041ZM319.441 15.4145C322.546 18.4544 324.937 21.9763 326.618 25.9867L328.463 25.2133C326.678 20.957 324.136 17.2122 320.84 13.9855L319.441 15.4145ZM326.626 26.0047C328.366 29.9359 329.241 34.197 329.241 38.8H331.241C331.241 33.9364 330.315 29.3975 328.455 25.1952L326.626 26.0047ZM329.241 38.8C329.241 43.7458 328.363 48.2788 326.619 52.4113L328.462 53.1887C330.319 48.7879 331.241 43.9875 331.241 38.8H329.241ZM326.614 52.4236C324.93 56.5687 322.537 60.1891 319.434 63.2929L320.848 64.7071C324.144 61.4109 326.684 57.5646 328.467 53.1764L326.614 52.4236ZM319.434 63.2929C316.332 66.3943 312.645 68.8222 308.362 70.5745L309.119 72.4255C313.636 70.5778 317.549 68.0057 320.848 64.7071L319.434 63.2929ZM308.374 70.5696C304.102 72.2526 299.428 73.1 294.341 73.1V75.1C299.654 75.1 304.579 74.2141 309.107 72.4304L308.374 70.5696ZM294.341 71.6C298.766 71.6 302.631 70.2232 305.887 67.4628L304.594 65.9372C301.717 68.3768 298.315 69.6 294.341 69.6V71.6ZM305.887 67.4628C309.119 64.7228 311.573 60.8917 313.284 56.0321L311.397 55.3679C309.775 59.975 307.496 63.4772 304.594 65.9372L305.887 67.4628ZM313.281 56.0396C315.062 51.107 315.941 45.3876 315.941 38.9H313.941C313.941 45.2124 313.086 50.693 311.4 55.3604L313.281 56.0396ZM315.941 38.9C315.941 32.7401 315.061 27.283 313.276 22.5474L311.405 23.2526C313.087 27.717 313.941 32.9266 313.941 38.9H315.941ZM313.281 22.5593C311.568 17.8309 309.113 14.072 305.887 11.3372L304.594 12.8628C307.502 15.328 309.78 18.7691 311.4 23.2406L313.281 22.5593ZM305.887 11.3372C302.631 8.57679 298.766 7.2 294.341 7.2V9.2C298.315 9.2 301.717 10.4232 304.594 12.8628L305.887 11.3372ZM294.341 7.2C290.04 7.2 286.244 8.58215 282.994 11.3372L284.287 12.8628C287.171 10.4178 290.508 9.2 294.341 9.2V7.2ZM282.994 11.3372C279.763 14.0767 277.277 17.9395 275.5 22.8604L277.381 23.5396C279.071 18.8604 281.385 15.3233 284.287 12.8628L282.994 11.3372ZM275.497 22.8679C273.784 27.7346 272.941 33.4858 272.941 40.1H274.941C274.941 33.6475 275.764 28.132 277.384 23.5321L275.497 22.8679ZM272.941 40.1C272.941 44.6357 273.414 48.8184 274.37 52.6425L276.311 52.1575C275.4 48.5149 274.941 44.4977 274.941 40.1H272.941ZM274.375 52.6587C275.398 56.4773 276.837 59.8127 278.705 62.65L280.376 61.55C278.644 58.9206 277.284 55.7894 276.307 52.1413L274.375 52.6587ZM278.705 62.65C280.577 65.4919 282.816 67.7053 285.43 69.2595L286.452 67.5405C284.132 66.1613 282.104 64.1748 280.376 61.55L278.705 62.65ZM285.44 69.2654C288.133 70.8245 291.107 71.6 294.341 71.6V69.6C291.441 69.6 288.815 68.9088 286.442 67.5346L285.44 69.2654Z" fill="black" mask="url(#path-1-outside-1_43_2)"/>
</svg>
